<mxfile host="Electron" agent="Mozilla/5.0 (Windows NT 10.0; Win64; x64) AppleWebKit/537.36 (KHTML, like Gecko) draw.io/27.0.9 Chrome/134.0.6998.205 Electron/35.4.0 Safari/537.36" version="27.0.9">
  <diagram name="brainstorming" id="template1">
    <mxGraphModel dx="3637" dy="2001" grid="0" gridSize="10" guides="1" tooltips="1" connect="1" arrows="1" fold="1" page="0" pageScale="1" pageWidth="827" pageHeight="1169" math="0" shadow="0">
      <root>
        <mxCell id="0" />
        <mxCell id="1" parent="0" />
        <mxCell id="VjkbqYnymtKGWMGeHRP4-19" style="edgeStyle=orthogonalEdgeStyle;rounded=0;orthogonalLoop=1;jettySize=auto;html=1;" parent="1" source="VjkbqYnymtKGWMGeHRP4-3" target="VjkbqYnymtKGWMGeHRP4-5" edge="1">
          <mxGeometry relative="1" as="geometry" />
        </mxCell>
        <mxCell id="-YO4hmXOkEtjG9AzswSq-33" style="edgeStyle=orthogonalEdgeStyle;rounded=0;orthogonalLoop=1;jettySize=auto;html=1;" edge="1" parent="1" source="VjkbqYnymtKGWMGeHRP4-3" target="-YO4hmXOkEtjG9AzswSq-27">
          <mxGeometry relative="1" as="geometry" />
        </mxCell>
        <mxCell id="VjkbqYnymtKGWMGeHRP4-3" value="&lt;font style=&quot;font-size: 21px;&quot;&gt;External&lt;/font&gt;&lt;div&gt;&lt;font style=&quot;font-size: 21px;&quot;&gt;Enviroment&lt;/font&gt;&lt;/div&gt;" style="ellipse;whiteSpace=wrap;html=1;gradientColor=none;shadow=0;aspect=fixed;flipH=1;flipV=1;" parent="1" vertex="1">
          <mxGeometry x="-1266.43" y="-702" width="242.86" height="250" as="geometry" />
        </mxCell>
        <mxCell id="VjkbqYnymtKGWMGeHRP4-20" style="edgeStyle=orthogonalEdgeStyle;rounded=0;orthogonalLoop=1;jettySize=auto;html=1;" parent="1" source="VjkbqYnymtKGWMGeHRP4-5" target="VjkbqYnymtKGWMGeHRP4-7" edge="1">
          <mxGeometry relative="1" as="geometry" />
        </mxCell>
        <mxCell id="VjkbqYnymtKGWMGeHRP4-5" value="&lt;font style=&quot;font-size: 19px;&quot;&gt;Input&lt;/font&gt;" style="rounded=0;whiteSpace=wrap;html=1;" parent="1" vertex="1">
          <mxGeometry x="-1205" y="-338" width="120" height="60" as="geometry" />
        </mxCell>
        <mxCell id="VjkbqYnymtKGWMGeHRP4-21" style="edgeStyle=orthogonalEdgeStyle;rounded=0;orthogonalLoop=1;jettySize=auto;html=1;" parent="1" source="VjkbqYnymtKGWMGeHRP4-7" target="VjkbqYnymtKGWMGeHRP4-14" edge="1">
          <mxGeometry relative="1" as="geometry" />
        </mxCell>
        <mxCell id="VjkbqYnymtKGWMGeHRP4-7" value="&lt;div&gt;&lt;font style=&quot;font-size: 19px;&quot;&gt;&lt;br&gt;&lt;/font&gt;&lt;/div&gt;&lt;font style=&quot;font-size: 19px;&quot;&gt;Input&amp;nbsp;&lt;/font&gt;&lt;div&gt;&lt;font style=&quot;font-size: 19px;&quot;&gt;Router&lt;/font&gt;&lt;div&gt;&lt;font style=&quot;font-size: 19px;&quot;&gt;&lt;br&gt;&lt;/font&gt;&lt;/div&gt;&lt;/div&gt;" style="rounded=0;whiteSpace=wrap;html=1;" parent="1" vertex="1">
          <mxGeometry x="-1205" y="-181" width="120" height="60" as="geometry" />
        </mxCell>
        <mxCell id="VjkbqYnymtKGWMGeHRP4-23" style="edgeStyle=orthogonalEdgeStyle;rounded=0;orthogonalLoop=1;jettySize=auto;html=1;" parent="1" source="VjkbqYnymtKGWMGeHRP4-14" target="VjkbqYnymtKGWMGeHRP4-16" edge="1">
          <mxGeometry relative="1" as="geometry">
            <Array as="points">
              <mxPoint x="-1145.43" y="135" />
            </Array>
          </mxGeometry>
        </mxCell>
        <mxCell id="VjkbqYnymtKGWMGeHRP4-14" value="&lt;font style=&quot;font-size: 20px;&quot;&gt;Buffering&lt;/font&gt;" style="shape=process;whiteSpace=wrap;html=1;backgroundOutline=1;dashed=1;dashPattern=12 12;" parent="1" vertex="1">
          <mxGeometry x="-1308" y="-31" width="326" height="60" as="geometry" />
        </mxCell>
        <mxCell id="VjkbqYnymtKGWMGeHRP4-25" style="edgeStyle=orthogonalEdgeStyle;rounded=0;orthogonalLoop=1;jettySize=auto;html=1;" parent="1" source="VjkbqYnymtKGWMGeHRP4-16" edge="1">
          <mxGeometry relative="1" as="geometry">
            <mxPoint x="-745.1800000000001" y="135.00000000000023" as="targetPoint" />
          </mxGeometry>
        </mxCell>
        <mxCell id="VjkbqYnymtKGWMGeHRP4-16" value="&lt;span style=&quot;font-size: 19px;&quot;&gt;Tokenization&lt;/span&gt;&lt;div&gt;&lt;span style=&quot;font-size: 19px;&quot;&gt;Min Samplable&lt;/span&gt;&lt;/div&gt;" style="rounded=0;whiteSpace=wrap;html=1;" parent="1" vertex="1">
          <mxGeometry x="-1003.0000000000001" y="106.5" width="141" height="60" as="geometry" />
        </mxCell>
        <mxCell id="-YO4hmXOkEtjG9AzswSq-23" style="edgeStyle=orthogonalEdgeStyle;rounded=0;orthogonalLoop=1;jettySize=auto;html=1;" edge="1" parent="1" source="-YO4hmXOkEtjG9AzswSq-2" target="-YO4hmXOkEtjG9AzswSq-22">
          <mxGeometry relative="1" as="geometry" />
        </mxCell>
        <mxCell id="-YO4hmXOkEtjG9AzswSq-2" value="&lt;font style=&quot;font-size: 23px;&quot;&gt;Reasoning&lt;/font&gt;&lt;div&gt;&lt;font style=&quot;font-size: 23px;&quot;&gt;Core&lt;/font&gt;&lt;/div&gt;" style="rounded=0;whiteSpace=wrap;html=1;" vertex="1" parent="1">
          <mxGeometry x="221" y="-117" width="214" height="111" as="geometry" />
        </mxCell>
        <mxCell id="-YO4hmXOkEtjG9AzswSq-26" style="edgeStyle=orthogonalEdgeStyle;rounded=0;orthogonalLoop=1;jettySize=auto;html=1;" edge="1" parent="1" source="-YO4hmXOkEtjG9AzswSq-3" target="VjkbqYnymtKGWMGeHRP4-3">
          <mxGeometry relative="1" as="geometry">
            <Array as="points">
              <mxPoint x="328" y="-577" />
            </Array>
          </mxGeometry>
        </mxCell>
        <mxCell id="-YO4hmXOkEtjG9AzswSq-28" style="edgeStyle=orthogonalEdgeStyle;rounded=0;orthogonalLoop=1;jettySize=auto;html=1;dashed=1;dashPattern=1 1;" edge="1" parent="1" source="-YO4hmXOkEtjG9AzswSq-3" target="-YO4hmXOkEtjG9AzswSq-27">
          <mxGeometry relative="1" as="geometry" />
        </mxCell>
        <mxCell id="-YO4hmXOkEtjG9AzswSq-3" value="&lt;span style=&quot;font-size: 19px;&quot;&gt;Output&lt;/span&gt;" style="rounded=0;whiteSpace=wrap;html=1;" vertex="1" parent="1">
          <mxGeometry x="257.5" y="-554" width="141" height="60" as="geometry" />
        </mxCell>
        <mxCell id="-YO4hmXOkEtjG9AzswSq-25" style="edgeStyle=orthogonalEdgeStyle;rounded=0;orthogonalLoop=1;jettySize=auto;html=1;entryX=0.5;entryY=1;entryDx=0;entryDy=0;" edge="1" parent="1" source="-YO4hmXOkEtjG9AzswSq-4" target="-YO4hmXOkEtjG9AzswSq-3">
          <mxGeometry relative="1" as="geometry" />
        </mxCell>
        <mxCell id="-YO4hmXOkEtjG9AzswSq-4" value="&lt;span style=&quot;font-size: 19px;&quot;&gt;Output&lt;/span&gt;&lt;div&gt;&lt;span style=&quot;font-size: 19px;&quot;&gt;Router&lt;/span&gt;&lt;/div&gt;" style="rounded=0;whiteSpace=wrap;html=1;" vertex="1" parent="1">
          <mxGeometry x="257.5" y="-391" width="141" height="60" as="geometry" />
        </mxCell>
        <mxCell id="-YO4hmXOkEtjG9AzswSq-5" value="" style="endArrow=none;html=1;rounded=0;entryX=1;entryY=0.5;entryDx=0;entryDy=0;" edge="1" parent="1" target="VjkbqYnymtKGWMGeHRP4-14">
          <mxGeometry width="50" height="50" relative="1" as="geometry">
            <mxPoint x="139" y="-10" as="sourcePoint" />
            <mxPoint x="-285" y="-158" as="targetPoint" />
          </mxGeometry>
        </mxCell>
        <mxCell id="-YO4hmXOkEtjG9AzswSq-6" value="&lt;font style=&quot;font-size: 26px;&quot;&gt;Global Tick&lt;/font&gt;" style="text;html=1;align=center;verticalAlign=middle;resizable=0;points=[];autosize=1;strokeColor=none;fillColor=none;" vertex="1" parent="1">
          <mxGeometry x="-574" y="-46" width="147" height="43" as="geometry" />
        </mxCell>
        <mxCell id="-YO4hmXOkEtjG9AzswSq-19" style="edgeStyle=orthogonalEdgeStyle;rounded=0;orthogonalLoop=1;jettySize=auto;html=1;strokeWidth=1;" edge="1" parent="1" source="-YO4hmXOkEtjG9AzswSq-7">
          <mxGeometry relative="1" as="geometry">
            <mxPoint x="-339.85714285714266" y="136.5" as="targetPoint" />
          </mxGeometry>
        </mxCell>
        <mxCell id="-YO4hmXOkEtjG9AzswSq-20" value="Propagation &amp;amp; Thresholding" style="edgeLabel;html=1;align=center;verticalAlign=middle;resizable=0;points=[];fontSize=16;" vertex="1" connectable="0" parent="-YO4hmXOkEtjG9AzswSq-19">
          <mxGeometry x="-0.0027" y="5" relative="1" as="geometry">
            <mxPoint x="1" as="offset" />
          </mxGeometry>
        </mxCell>
        <mxCell id="-YO4hmXOkEtjG9AzswSq-7" value="&lt;span style=&quot;font-size: 19px;&quot;&gt;Pattern Activation Engine&lt;/span&gt;" style="rounded=0;whiteSpace=wrap;html=1;" vertex="1" parent="1">
          <mxGeometry x="-792" y="106.5" width="201" height="60" as="geometry" />
        </mxCell>
        <mxCell id="-YO4hmXOkEtjG9AzswSq-13" style="edgeStyle=orthogonalEdgeStyle;rounded=0;orthogonalLoop=1;jettySize=auto;html=1;" edge="1" parent="1" source="-YO4hmXOkEtjG9AzswSq-8" target="-YO4hmXOkEtjG9AzswSq-11">
          <mxGeometry relative="1" as="geometry" />
        </mxCell>
        <mxCell id="-YO4hmXOkEtjG9AzswSq-14" style="edgeStyle=orthogonalEdgeStyle;rounded=0;orthogonalLoop=1;jettySize=auto;html=1;" edge="1" parent="1" source="-YO4hmXOkEtjG9AzswSq-8" target="-YO4hmXOkEtjG9AzswSq-9">
          <mxGeometry relative="1" as="geometry" />
        </mxCell>
        <mxCell id="-YO4hmXOkEtjG9AzswSq-15" style="edgeStyle=orthogonalEdgeStyle;rounded=0;orthogonalLoop=1;jettySize=auto;html=1;" edge="1" parent="1" source="-YO4hmXOkEtjG9AzswSq-8" target="-YO4hmXOkEtjG9AzswSq-10">
          <mxGeometry relative="1" as="geometry" />
        </mxCell>
        <mxCell id="-YO4hmXOkEtjG9AzswSq-8" value="&lt;span style=&quot;font-size: 19px;&quot;&gt;Memory&lt;/span&gt;" style="rounded=0;whiteSpace=wrap;html=1;" vertex="1" parent="1">
          <mxGeometry x="-32" y="110.5" width="164" height="60" as="geometry" />
        </mxCell>
        <mxCell id="-YO4hmXOkEtjG9AzswSq-17" style="edgeStyle=orthogonalEdgeStyle;rounded=0;orthogonalLoop=1;jettySize=auto;html=1;" edge="1" parent="1" source="-YO4hmXOkEtjG9AzswSq-9" target="-YO4hmXOkEtjG9AzswSq-8">
          <mxGeometry relative="1" as="geometry" />
        </mxCell>
        <mxCell id="-YO4hmXOkEtjG9AzswSq-9" value="&lt;span style=&quot;font-size: 19px;&quot;&gt;Long Term Memory&lt;/span&gt;" style="rounded=0;whiteSpace=wrap;html=1;" vertex="1" parent="1">
          <mxGeometry x="-134" y="272" width="164" height="60" as="geometry" />
        </mxCell>
        <mxCell id="-YO4hmXOkEtjG9AzswSq-16" style="edgeStyle=orthogonalEdgeStyle;rounded=0;orthogonalLoop=1;jettySize=auto;html=1;" edge="1" parent="1" source="-YO4hmXOkEtjG9AzswSq-10" target="-YO4hmXOkEtjG9AzswSq-8">
          <mxGeometry relative="1" as="geometry" />
        </mxCell>
        <mxCell id="-YO4hmXOkEtjG9AzswSq-10" value="&lt;span style=&quot;font-size: 19px;&quot;&gt;Short Term&amp;nbsp;&lt;/span&gt;&lt;div&gt;&lt;span style=&quot;font-size: 19px;&quot;&gt;Memory&lt;/span&gt;&lt;/div&gt;" style="rounded=0;whiteSpace=wrap;html=1;" vertex="1" parent="1">
          <mxGeometry x="67" y="272" width="164" height="60" as="geometry" />
        </mxCell>
        <mxCell id="-YO4hmXOkEtjG9AzswSq-12" style="edgeStyle=orthogonalEdgeStyle;rounded=0;orthogonalLoop=1;jettySize=auto;html=1;" edge="1" parent="1" source="-YO4hmXOkEtjG9AzswSq-11" target="-YO4hmXOkEtjG9AzswSq-8">
          <mxGeometry relative="1" as="geometry" />
        </mxCell>
        <mxCell id="-YO4hmXOkEtjG9AzswSq-11" value="&lt;span style=&quot;font-size: 19px;&quot;&gt;Conceptual Activation&lt;/span&gt;" style="rounded=0;whiteSpace=wrap;html=1;" vertex="1" parent="1">
          <mxGeometry x="-339" y="95" width="195" height="91" as="geometry" />
        </mxCell>
        <mxCell id="-YO4hmXOkEtjG9AzswSq-21" style="edgeStyle=orthogonalEdgeStyle;rounded=0;orthogonalLoop=1;jettySize=auto;html=1;entryX=0.463;entryY=0.968;entryDx=0;entryDy=0;entryPerimeter=0;" edge="1" parent="1" source="-YO4hmXOkEtjG9AzswSq-8" target="-YO4hmXOkEtjG9AzswSq-2">
          <mxGeometry relative="1" as="geometry" />
        </mxCell>
        <mxCell id="-YO4hmXOkEtjG9AzswSq-24" style="edgeStyle=orthogonalEdgeStyle;rounded=0;orthogonalLoop=1;jettySize=auto;html=1;" edge="1" parent="1" source="-YO4hmXOkEtjG9AzswSq-22" target="-YO4hmXOkEtjG9AzswSq-4">
          <mxGeometry relative="1" as="geometry" />
        </mxCell>
        <mxCell id="-YO4hmXOkEtjG9AzswSq-22" value="&lt;font style=&quot;font-size: 20px;&quot;&gt;Buffering&lt;/font&gt;" style="shape=process;whiteSpace=wrap;html=1;backgroundOutline=1;dashed=1;dashPattern=12 12;" vertex="1" parent="1">
          <mxGeometry x="165" y="-241" width="326" height="60" as="geometry" />
        </mxCell>
        <mxCell id="-YO4hmXOkEtjG9AzswSq-31" style="edgeStyle=orthogonalEdgeStyle;rounded=0;orthogonalLoop=1;jettySize=auto;html=1;dashed=1;dashPattern=1 1;sketch=1;curveFitting=1;jiggle=2;curved=1;" edge="1" parent="1" source="-YO4hmXOkEtjG9AzswSq-27" target="VjkbqYnymtKGWMGeHRP4-5">
          <mxGeometry relative="1" as="geometry">
            <Array as="points">
              <mxPoint x="-426" y="-387" />
              <mxPoint x="-1145" y="-387" />
            </Array>
          </mxGeometry>
        </mxCell>
        <mxCell id="-YO4hmXOkEtjG9AzswSq-32" value="To Input Queue" style="edgeLabel;html=1;align=center;verticalAlign=middle;resizable=0;points=[];fontSize=23;" vertex="1" connectable="0" parent="-YO4hmXOkEtjG9AzswSq-31">
          <mxGeometry x="-0.0152" relative="1" as="geometry">
            <mxPoint x="1" as="offset" />
          </mxGeometry>
        </mxCell>
        <mxCell id="-YO4hmXOkEtjG9AzswSq-27" value="&lt;font style=&quot;font-size: 17px;&quot;&gt;Output&lt;/font&gt;&lt;div&gt;&lt;font style=&quot;font-size: 17px;&quot;&gt;Feedback&lt;/font&gt;&lt;/div&gt;" style="rounded=1;whiteSpace=wrap;html=1;" vertex="1" parent="1">
          <mxGeometry x="-486" y="-554" width="120" height="60" as="geometry" />
        </mxCell>
      </root>
    </mxGraphModel>
  </diagram>
</mxfile>
